REM DIRINDEX 1\2,1\3
REM DIRNAME folder01,folder02,folder03
TITLE ""
FILE "0001-0040.mp3" MP3
  TRACK 01 AUDIO
    TITLE "0:"
    INDEX 01 00:00:00
  TRACK 02 AUDIO
    TITLE "2:cjc039_0001"
    INDEX 01 00:00:23
  TRACK 03 AUDIO
    TITLE "0:"
    INDEX 01 00:01:48
  TRACK 04 AUDIO
    TITLE "2:cjc039_0002"
    INDEX 01 00:02:18
  TRACK 05 AUDIO
    TITLE "0:"
    INDEX 01 00:03:45
  TRACK 06 AUDIO
    TITLE "2:cjc039_0003"
    INDEX 01 00:04:19
  TRACK 07 AUDIO
    TITLE "0:"
    INDEX 01 00:05:38
  TRACK 08 AUDIO
    TITLE "2:cjc039_0004"
    INDEX 01 00:06:14
  TRACK 09 AUDIO
    TITLE "0:"
    INDEX 01 00:07:29
  TRACK 10 AUDIO
    TITLE "2:cjc039_0005"
    INDEX 01 00:08:05
  TRACK 11 AUDIO
    TITLE "0:"
    INDEX 01 00:09:20
  TRACK 12 AUDIO
    TITLE "2:cjc039_0006"
    INDEX 01 00:09:69
  TRACK 13 AUDIO
    TITLE "0:"
    INDEX 01 00:11:17
  TRACK 14 AUDIO
    TITLE "2:cjc039_0007"
    INDEX 01 00:11:64
  TRACK 15 AUDIO
    TITLE "0:"
    INDEX 01 00:13:18
  TRACK 16 AUDIO
    TITLE "2:cjc039_0008"
    INDEX 01 00:13:67
  TRACK 17 AUDIO
    TITLE "0:"
    INDEX 01 00:15:07
  TRACK 18 AUDIO
    TITLE "2:cjc039_0009"
    INDEX 01 00:15:58
  TRACK 19 AUDIO
    TITLE "0:"
    INDEX 01 00:17:12
  TRACK 20 AUDIO
    TITLE "2:cjc039_0010"
    INDEX 01 00:17:59
  TRACK 21 AUDIO
    TITLE "0:"
    INDEX 01 00:19:16
  TRACK 22 AUDIO
    TITLE "2:cjc039_0011"
    INDEX 01 00:19:65
  TRACK 23 AUDIO
    TITLE "0:"
    INDEX 01 00:21:21
  TRACK 24 AUDIO
    TITLE "2:cjc039_0012"
    INDEX 01 00:21:72
  TRACK 25 AUDIO
    TITLE "0:"
    INDEX 01 00:23:26
  TRACK 26 AUDIO
    TITLE "2:cjc039_0013"
    INDEX 01 00:24:06
  TRACK 27 AUDIO
    TITLE "0:"
    INDEX 01 00:25:29
  TRACK 28 AUDIO
    TITLE "2:cjc039_0014"
    INDEX 01 00:26:09
  TRACK 29 AUDIO
    TITLE "0:"
    INDEX 01 00:27:24
  TRACK 30 AUDIO
    TITLE "2:cjc039_0015"
    INDEX 01 00:28:02
  TRACK 31 AUDIO
    TITLE "0:"
    INDEX 01 00:29:40
  TRACK 32 AUDIO
    TITLE "2:cjc039_0016"
    INDEX 01 00:30:14
  TRACK 33 AUDIO
    TITLE "0:"
    INDEX 01 00:31:31
  TRACK 34 AUDIO
    TITLE "2:cjc039_0017"
    INDEX 01 00:32:11
  TRACK 35 AUDIO
    TITLE "0:"
    INDEX 01 00:33:44
  TRACK 36 AUDIO
    TITLE "2:cjc039_0018"
    INDEX 01 00:34:16
  TRACK 37 AUDIO
    TITLE "0:"
    INDEX 01 00:35:49
  TRACK 38 AUDIO
    TITLE "2:cjc039_0019"
    INDEX 01 00:36:29
  TRACK 39 AUDIO
    TITLE "0:"
    INDEX 01 00:37:48
  TRACK 40 AUDIO
    TITLE "2:cjc039_0020"
    INDEX 01 00:38:22
  TRACK 41 AUDIO
    TITLE "0:"
    INDEX 01 00:39:62
  TRACK 42 AUDIO
    TITLE "2:cjc039_0021"
    INDEX 01 00:40:38
  TRACK 43 AUDIO
    TITLE "0:"
    INDEX 01 00:41:59
  TRACK 44 AUDIO
    TITLE "2:cjc039_0022"
    INDEX 01 00:42:31
  TRACK 45 AUDIO
    TITLE "0:"
    INDEX 01 00:43:44
  TRACK 46 AUDIO
    TITLE "2:cjc039_0023"
    INDEX 01 00:44:24
  TRACK 47 AUDIO
    TITLE "0:"
    INDEX 01 00:45:67
  TRACK 48 AUDIO
    TITLE "2:cjc039_0024"
    INDEX 01 00:46:45
  TRACK 49 AUDIO
    TITLE "0:"
    INDEX 01 00:48:12
  TRACK 50 AUDIO
    TITLE "2:cjc039_0025"
    INDEX 01 00:48:67
  TRACK 51 AUDIO
    TITLE "0:"
    INDEX 01 00:50:23
  TRACK 52 AUDIO
    TITLE "2:cjc039_0026"
    INDEX 01 00:50:74
  TRACK 53 AUDIO
    TITLE "0:"
    INDEX 01 00:52:26
  TRACK 54 AUDIO
    TITLE "2:cjc039_0027"
    INDEX 01 00:53:04
  TRACK 55 AUDIO
    TITLE "0:"
    INDEX 01 00:54:23
  TRACK 56 AUDIO
    TITLE "2:cjc039_0028"
    INDEX 01 00:55:01
  TRACK 57 AUDIO
    TITLE "0:"
    INDEX 01 00:56:10
  TRACK 58 AUDIO
    TITLE "2:cjc039_0029"
    INDEX 01 00:56:63
  TRACK 59 AUDIO
    TITLE "0:"
    INDEX 01 00:58:26
  TRACK 60 AUDIO
    TITLE "2:cjc039_0030"
    INDEX 01 00:59:08
  TRACK 61 AUDIO
    TITLE "0:"
    INDEX 01 01:00:51
  TRACK 62 AUDIO
    TITLE "2:cjc039_0031"
    INDEX 01 01:01:25
  TRACK 63 AUDIO
    TITLE "0:"
    INDEX 01 01:02:71
  TRACK 64 AUDIO
    TITLE "2:cjc039_0032"
    INDEX 01 01:03:57
  TRACK 65 AUDIO
    TITLE "0:"
    INDEX 01 01:04:74
  TRACK 66 AUDIO
    TITLE "2:cjc039_0033"
    INDEX 01 01:05:50
  TRACK 67 AUDIO
    TITLE "0:"
    INDEX 01 01:06:67
  TRACK 68 AUDIO
    TITLE "2:cjc039_0034"
    INDEX 01 01:07:49
  TRACK 69 AUDIO
    TITLE "0:"
    INDEX 01 01:08:68
  TRACK 70 AUDIO
    TITLE "2:cjc039_0035"
    INDEX 01 01:09:44
  TRACK 71 AUDIO
    TITLE "0:"
    INDEX 01 01:11:23
  TRACK 72 AUDIO
    TITLE "2:cjc039_0036"
    INDEX 01 01:11:72
  TRACK 73 AUDIO
    TITLE "0:"
    INDEX 01 01:13:20
  TRACK 74 AUDIO
    TITLE "2:cjc039_0037"
    INDEX 01 01:13:71
  TRACK 75 AUDIO
    TITLE "0:"
    INDEX 01 01:15:27
  TRACK 76 AUDIO
    TITLE "2:cjc039_0038"
    INDEX 01 01:16:09
  TRACK 77 AUDIO
    TITLE "0:"
    INDEX 01 01:17:59
  TRACK 78 AUDIO
    TITLE "2:cjc039_0039"
    INDEX 01 01:18:35
  TRACK 79 AUDIO
    TITLE "0:"
    INDEX 01 01:19:58
  TRACK 80 AUDIO
    TITLE "2:cjc039_0040"
    INDEX 01 01:20:38
  TRACK 81 AUDIO
    TITLE "0:"
    INDEX 01 01:21:70
